<svg xmlns="http://www.w3.org/2000/svg" xmlns:xlink="http://www.w3.org/1999/xlink" width="983" zoomAndPan="magnify" viewBox="0 0 737.25 283.499996" height="378" preserveAspectRatio="xMidYMid meet" version="1.0"><defs><g/><clipPath id="ef506e134e"><path d="M 586.398438 50 L 699 50 L 699 179.949219 L 586.398438 179.949219 Z M 586.398438 50 " clip-rule="nonzero"/></clipPath><clipPath id="802cfbd37e"><path d="M 674 20.480469 L 729 20.480469 L 729 53 L 674 53 Z M 674 20.480469 " clip-rule="nonzero"/></clipPath></defs><g fill="#DFA878" fill-opacity="1"><g transform="translate(19.833224, 224.279626)"><g><path d="M 44.921875 -4.3125 C 37.492188 1.675781 29.269531 4.671875 20.25 4.671875 C 9.945312 4.671875 3.597656 1.796875 1.203125 -3.953125 C 0.640625 -5.304688 0.359375 -6.878906 0.359375 -8.671875 C 0.359375 -10.472656 1.273438 -12.414062 3.109375 -14.5 C 5.984375 -17.769531 9.976562 -19.40625 15.09375 -19.40625 C 18.53125 -19.40625 21.984375 -18.785156 25.453125 -17.546875 C 28.921875 -16.304688 35.085938 -13.332031 43.953125 -8.625 C 47.953125 -12.457031 51.945312 -17.566406 55.9375 -23.953125 C 59.925781 -30.335938 63.378906 -36.503906 66.296875 -42.453125 C 69.210938 -48.410156 72.765625 -54.898438 76.953125 -61.921875 C 81.148438 -68.953125 85.328125 -74.785156 89.484375 -79.421875 C 80.535156 -84.765625 71.03125 -87.4375 60.96875 -87.4375 C 56.8125 -87.4375 52.578125 -87 48.265625 -86.125 C 35.890625 -83.488281 26.46875 -78.097656 20 -69.953125 C 16.007812 -65.003906 14.015625 -60.289062 14.015625 -55.8125 C 14.015625 -49.75 16.929688 -45.796875 22.765625 -43.953125 C 24.835938 -43.398438 26.628906 -43.125 28.140625 -43.125 C 29.660156 -43.125 31.359375 -43.363281 33.234375 -43.84375 C 35.109375 -44.320312 36.96875 -45.4375 38.8125 -47.1875 C 42.320312 -50.707031 44.195312 -53.984375 44.4375 -57.015625 C 44.519531 -57.734375 44.976562 -57.992188 45.8125 -57.796875 C 46.65625 -57.597656 46.992188 -56.976562 46.828125 -55.9375 C 46.035156 -50.101562 42.960938 -45.671875 37.609375 -42.640625 C 34.335938 -40.878906 31.066406 -40 27.796875 -40 L 21.5625 -41.078125 C 15.488281 -43.160156 11.492188 -47.035156 9.578125 -52.703125 C 8.785156 -54.859375 8.390625 -57.015625 8.390625 -59.171875 C 8.390625 -63.566406 10.023438 -67.921875 13.296875 -72.234375 C 20.328125 -81.648438 32.785156 -87.675781 50.671875 -90.3125 C 54.179688 -90.789062 57.65625 -91.03125 61.09375 -91.03125 C 72.1875 -91.03125 82.765625 -88.394531 92.828125 -83.125 C 95.941406 -86.71875 98.816406 -89.453125 101.453125 -91.328125 C 104.085938 -93.203125 106.203125 -94.140625 107.796875 -94.140625 C 108.679688 -94.140625 109.203125 -93.957031 109.359375 -93.59375 C 109.515625 -93.238281 109.492188 -92.960938 109.296875 -92.765625 C 109.097656 -92.566406 108.835938 -92.46875 108.515625 -92.46875 C 107.160156 -92.46875 105.40625 -91.03125 103.25 -88.15625 C 101.09375 -85.28125 99.335938 -82.609375 97.984375 -80.140625 C 106.523438 -74.460938 113.03125 -67.191406 117.5 -58.328125 C 121.09375 -51.222656 122.890625 -43.476562 122.890625 -35.09375 C 122.890625 -24.71875 120.414062 -16.453125 115.46875 -10.296875 C 111.394531 -5.265625 106.441406 -1.710938 100.609375 0.359375 C 93.660156 2.835938 86.796875 4.078125 80.015625 4.078125 C 66.273438 4.078125 54.578125 1.28125 44.921875 -4.3125 Z M 47.796875 -6.46875 C 55.859375 -1.675781 65.320312 0.71875 76.1875 0.71875 C 88.800781 0.71875 98.859375 -2.875 106.359375 -10.0625 C 112.347656 -15.894531 115.34375 -23.957031 115.34375 -34.25 C 115.34375 -41.601562 113.90625 -48.515625 111.03125 -54.984375 C 107.4375 -63.203125 102.128906 -70.066406 95.109375 -75.578125 C 92.785156 -71.984375 88.332031 -64.734375 81.75 -53.828125 C 75.164062 -42.929688 69.597656 -34.085938 65.046875 -27.296875 C 60.492188 -20.515625 56.898438 -15.707031 54.265625 -12.875 C 51.628906 -10.039062 49.472656 -7.90625 47.796875 -6.46875 Z M 40.84375 -6.234375 C 31.5 -10.703125 25.585938 -13.375 23.109375 -14.25 C 20.640625 -15.132812 18.226562 -15.578125 15.875 -15.578125 C 13.519531 -15.578125 11.640625 -14.695312 10.234375 -12.9375 C 8.835938 -11.175781 8.140625 -9.597656 8.140625 -8.203125 C 8.140625 -6.804688 8.460938 -5.46875 9.109375 -4.1875 C 10.785156 -0.757812 14.21875 0.953125 19.40625 0.953125 C 27.070312 0.953125 34.21875 -1.441406 40.84375 -6.234375 Z M 40.84375 -6.234375 "/></g></g></g><g fill="#DFA878" fill-opacity="1"><g transform="translate(141.299053, 224.279626)"><g><path d="M 28.625 -41.921875 C 34.457031 -41.921875 37.375 -38.25 37.375 -30.90625 C 37.375 -27.550781 36.492188 -23.957031 34.734375 -20.125 C 32.492188 -14.9375 29.140625 -10.222656 24.671875 -5.984375 C 25.710938 -3.992188 27.585938 -3 30.296875 -3 C 32.453125 -3 34.488281 -4.078125 36.40625 -6.234375 C 38.800781 -8.703125 40.519531 -10.875 41.5625 -12.75 C 42.601562 -14.632812 43.363281 -16.015625 43.84375 -16.890625 C 44.320312 -17.765625 44.9375 -19.019531 45.6875 -20.65625 C 46.445312 -22.300781 46.90625 -23.300781 47.0625 -23.65625 C 47.226562 -24.019531 47.507812 -24.203125 47.90625 -24.203125 C 48.707031 -24.273438 49.109375 -23.992188 49.109375 -23.359375 C 49.109375 -23.117188 49.03125 -22.835938 48.875 -22.515625 L 48.15625 -20.84375 C 47.675781 -19.726562 47.316406 -18.929688 47.078125 -18.453125 C 46.835938 -17.972656 46.414062 -17.113281 45.8125 -15.875 C 45.21875 -14.632812 44.695312 -13.65625 44.25 -12.9375 C 43.8125 -12.21875 43.210938 -11.257812 42.453125 -10.0625 C 41.703125 -8.863281 41.023438 -7.90625 40.421875 -7.1875 C 39.828125 -6.46875 39.085938 -5.664062 38.203125 -4.78125 C 37.328125 -3.90625 36.488281 -3.226562 35.6875 -2.75 C 33.695312 -1.550781 31.820312 -0.953125 30.0625 -0.953125 C 26.789062 -0.953125 24.238281 -1.992188 22.40625 -4.078125 C 18.726562 -1.359375 15.332031 0 12.21875 0 C 6.382812 0 3.46875 -3.671875 3.46875 -11.015625 C 3.46875 -14.367188 4.347656 -17.960938 6.109375 -21.796875 C 8.503906 -27.390625 11.878906 -32.140625 16.234375 -36.046875 C 20.585938 -39.960938 24.71875 -41.921875 28.625 -41.921875 Z M 29.953125 -38.203125 C 27.796875 -38.203125 25.238281 -36.765625 22.28125 -33.890625 C 19.320312 -31.023438 16.6875 -27.113281 14.375 -22.15625 C 11.582031 -16.40625 10.1875 -11.691406 10.1875 -8.015625 C 10.1875 -4.347656 11.582031 -2.515625 14.375 -2.515625 C 16.375 -2.515625 18.609375 -3.59375 21.078125 -5.75 C 19.804688 -7.582031 19.171875 -9.539062 19.171875 -11.625 C 19.328125 -15.050781 20.722656 -16.765625 23.359375 -16.765625 C 24.398438 -16.765625 25.257812 -16.40625 25.9375 -15.6875 C 26.613281 -14.96875 26.953125 -14.304688 26.953125 -13.703125 C 26.953125 -13.109375 26.875 -12.492188 26.71875 -11.859375 C 28.070312 -13.859375 29.625 -16.691406 31.375 -20.359375 C 33.375 -24.429688 34.375 -28.421875 34.375 -32.328125 C 34.375 -36.242188 32.898438 -38.203125 29.953125 -38.203125 Z M 29.953125 -38.203125 "/></g></g></g><g fill="#DFA878" fill-opacity="1"><g transform="translate(181.428292, 224.279626)"><g><path d="M 13.421875 -23.125 C 13.335938 -22.800781 12.972656 -21.703125 12.328125 -19.828125 C 11.691406 -17.953125 11.15625 -16.15625 10.71875 -14.4375 C 10.28125 -12.71875 10.0625 -11 10.0625 -9.28125 C 10.0625 -7.5625 10.457031 -5.960938 11.25 -4.484375 C 12.050781 -3.015625 13.332031 -2.28125 15.09375 -2.28125 C 17.96875 -2.28125 20.757812 -4.210938 23.46875 -8.078125 C 26.1875 -11.953125 29.0625 -16.882812 32.09375 -22.875 C 32.738281 -24 33.335938 -24.441406 33.890625 -24.203125 C 34.296875 -23.878906 34.378906 -23.457031 34.140625 -22.9375 C 33.898438 -22.414062 33.398438 -21.296875 32.640625 -19.578125 C 31.878906 -17.867188 31.316406 -16.671875 30.953125 -15.984375 C 30.597656 -15.304688 29.960938 -14.109375 29.046875 -12.390625 C 28.128906 -10.679688 27.332031 -9.40625 26.65625 -8.5625 C 25.976562 -7.726562 25.054688 -6.648438 23.890625 -5.328125 C 22.734375 -4.015625 21.640625 -3.035156 20.609375 -2.390625 C 17.804688 -0.640625 15.164062 0.234375 12.6875 0.234375 C 10.21875 0.234375 8.300781 -0.300781 6.9375 -1.375 C 5.582031 -2.457031 4.765625 -3.613281 4.484375 -4.84375 C 4.210938 -6.082031 4.078125 -7.179688 4.078125 -8.140625 C 4.078125 -9.097656 4.113281 -10.335938 4.1875 -11.859375 C 4.425781 -14.410156 4.925781 -16.882812 5.6875 -19.28125 C 6.445312 -21.675781 6.867188 -23.035156 6.953125 -23.359375 C 8.785156 -29.984375 11.398438 -37.207031 14.796875 -45.03125 C 18.191406 -52.863281 21.066406 -58.753906 23.421875 -62.703125 C 25.773438 -66.660156 27.628906 -69.359375 28.984375 -70.796875 C 31.703125 -73.671875 34.378906 -75.109375 37.015625 -75.109375 C 38.847656 -75.109375 40.082031 -73.789062 40.71875 -71.15625 C 40.800781 -70.675781 40.84375 -70.078125 40.84375 -69.359375 C 40.84375 -66.640625 39.882812 -63.203125 37.96875 -59.046875 C 31.101562 -43.796875 22.921875 -31.820312 13.421875 -23.125 Z M 14.375 -26.953125 C 18.445312 -31.097656 22.476562 -36.328125 26.46875 -42.640625 C 30.457031 -48.953125 33.390625 -54.320312 35.265625 -58.75 C 37.148438 -63.1875 38.09375 -66.203125 38.09375 -67.796875 C 38.09375 -69.390625 37.8125 -70.1875 37.25 -70.1875 C 36.445312 -70.1875 34.925781 -68.609375 32.6875 -65.453125 C 30.457031 -62.304688 27.445312 -56.640625 23.65625 -48.453125 C 19.863281 -40.265625 16.769531 -33.097656 14.375 -26.953125 Z M 14.375 -26.953125 "/></g></g></g><g fill="#DFA878" fill-opacity="1"><g transform="translate(206.823512, 224.279626)"><g><path d="M 28.875 -27.546875 C 31.664062 -30.898438 33.0625 -33.734375 33.0625 -36.046875 C 33.0625 -38.367188 32.101562 -39.53125 30.1875 -39.53125 C 26.4375 -39.53125 22.164062 -36.097656 17.375 -29.234375 C 15.851562 -27.078125 14.375 -24.238281 12.9375 -20.71875 C 11.5 -17.207031 10.78125 -14.035156 10.78125 -11.203125 C 10.78125 -8.367188 11.359375 -6.070312 12.515625 -4.3125 C 13.671875 -2.550781 15.46875 -1.671875 17.90625 -1.671875 C 20.34375 -1.671875 22.597656 -2.25 24.671875 -3.40625 C 26.753906 -4.570312 28.734375 -6.410156 30.609375 -8.921875 C 32.484375 -11.441406 33.898438 -13.539062 34.859375 -15.21875 C 35.816406 -16.894531 37.132812 -19.410156 38.8125 -22.765625 C 39.363281 -23.878906 39.835938 -24.335938 40.234375 -24.140625 C 40.640625 -23.941406 40.84375 -23.660156 40.84375 -23.296875 C 40.84375 -22.941406 40.300781 -21.625 39.21875 -19.34375 C 38.144531 -17.070312 37.066406 -14.9375 35.984375 -12.9375 C 34.910156 -10.9375 33.375 -8.703125 31.375 -6.234375 C 27.789062 -1.753906 22.882812 0.484375 16.65625 0.484375 C 12.175781 0.484375 8.957031 -0.613281 7 -2.8125 C 5.050781 -5.007812 4.078125 -7.546875 4.078125 -10.421875 C 4.078125 -13.929688 4.929688 -17.765625 6.640625 -21.921875 C 8.359375 -26.078125 10.335938 -29.671875 12.578125 -32.703125 C 17.210938 -39.003906 22.5625 -42.15625 28.625 -42.15625 C 31.582031 -42.15625 33.71875 -41.457031 35.03125 -40.0625 C 36.351562 -38.664062 37.015625 -37.050781 37.015625 -35.21875 C 37.015625 -32.5 35.894531 -30.179688 33.65625 -28.265625 C 32.539062 -27.234375 31.601562 -26.71875 30.84375 -26.71875 C 30.082031 -26.71875 29.425781 -26.992188 28.875 -27.546875 Z M 28.875 -27.546875 "/></g></g></g><g fill="#DFA878" fill-opacity="1"><g transform="translate(237.968596, 224.279626)"><g><path d="M 23.234375 -46.59375 C 22.117188 -45.632812 20.878906 -45.15625 19.515625 -45.15625 C 18.160156 -45.15625 17.082031 -45.632812 16.28125 -46.59375 C 15.488281 -47.550781 15.171875 -48.707031 15.328125 -50.0625 C 15.566406 -51.425781 16.242188 -52.585938 17.359375 -53.546875 C 18.484375 -54.503906 19.722656 -54.984375 21.078125 -54.984375 C 22.441406 -54.984375 23.539062 -54.503906 24.375 -53.546875 C 25.21875 -52.585938 25.519531 -51.425781 25.28125 -50.0625 C 25.039062 -48.707031 24.359375 -47.550781 23.234375 -46.59375 Z M 11.5 -2.640625 C 13.019531 -2.640625 14.617188 -3.394531 16.296875 -4.90625 C 19.242188 -7.863281 22.992188 -13.894531 27.546875 -23 C 28.109375 -24.195312 28.671875 -24.554688 29.234375 -24.078125 C 29.390625 -23.921875 29.46875 -23.660156 29.46875 -23.296875 C 29.46875 -22.941406 29.144531 -22.0625 28.5 -20.65625 C 27.863281 -19.257812 27.285156 -18.003906 26.765625 -16.890625 C 26.253906 -15.773438 25.257812 -13.957031 23.78125 -11.4375 C 22.300781 -8.925781 20.960938 -6.988281 19.765625 -5.625 C 16.492188 -1.875 13.398438 0 10.484375 0 C 7.566406 0 5.46875 -0.875 4.1875 -2.625 C 2.914062 -4.382812 2.28125 -6.34375 2.28125 -8.5 C 2.28125 -10.65625 2.796875 -13.015625 3.828125 -15.578125 L 11.5 -35.09375 C 11.65625 -35.570312 11.734375 -36.207031 11.734375 -37 C 11.734375 -37.800781 11.253906 -38.84375 10.296875 -40.125 L 16.890625 -40.25 C 18.722656 -40.25 19.800781 -39.90625 20.125 -39.21875 C 20.445312 -38.539062 20.207031 -37.484375 19.40625 -36.046875 L 9.828125 -13.65625 C 8.460938 -10.695312 7.78125 -8.179688 7.78125 -6.109375 C 7.78125 -3.796875 9.019531 -2.640625 11.5 -2.640625 Z M 11.5 -2.640625 "/></g></g></g><g fill="#DFA878" fill-opacity="1"><g transform="translate(258.811831, 224.279626)"><g/></g></g><g fill="#DFA878" fill-opacity="1"><g transform="translate(289.837113, 224.279626)"><g><path d="M 32.09375 -6.953125 C 32.09375 -4.390625 33.132812 -3.109375 35.21875 -3.109375 C 38.96875 -3.109375 43.957031 -9.378906 50.1875 -21.921875 C 50.425781 -22.398438 50.644531 -22.878906 50.84375 -23.359375 C 51.039062 -23.835938 51.359375 -24.15625 51.796875 -24.3125 C 52.242188 -24.476562 52.546875 -24.378906 52.703125 -24.015625 C 52.859375 -23.660156 52.78125 -23.082031 52.46875 -22.28125 C 46.070312 -7.425781 39.601562 0 33.0625 0 C 30.90625 0 29.1875 -0.957031 27.90625 -2.875 C 26.632812 -4.789062 26 -6.6875 26 -8.5625 C 26 -10.4375 26.195312 -12.175781 26.59375 -13.78125 C 21.957031 -6.113281 17.960938 -1.757812 14.609375 -0.71875 C 13.648438 -0.320312 12.710938 -0.125 11.796875 -0.125 C 10.878906 -0.125 9.984375 -0.242188 9.109375 -0.484375 C 5.191406 -1.515625 3.234375 -4.628906 3.234375 -9.828125 C 3.234375 -13.335938 4.128906 -17.226562 5.921875 -21.5 C 7.722656 -25.769531 10.257812 -29.859375 13.53125 -33.765625 C 16.8125 -37.679688 20.765625 -40.320312 25.390625 -41.6875 C 27.066406 -42.238281 29.039062 -42.515625 31.3125 -42.515625 C 33.59375 -42.515625 36.128906 -41.796875 38.921875 -40.359375 C 44.359375 -50.585938 48.992188 -60.050781 52.828125 -68.75 C 53.941406 -71.382812 55.035156 -73.082031 56.109375 -73.84375 C 57.191406 -74.601562 58.191406 -74.984375 59.109375 -74.984375 C 60.023438 -74.984375 60.582031 -74.984375 60.78125 -74.984375 C 60.988281 -74.984375 61.75 -74.882812 63.0625 -74.6875 C 64.382812 -74.488281 65.40625 -74.425781 66.125 -74.5 C 64.28125 -72.820312 59.40625 -64.675781 51.5 -50.0625 C 41.4375 -31.382812 35.367188 -18.929688 33.296875 -12.703125 C 32.492188 -10.378906 32.09375 -8.460938 32.09375 -6.953125 Z M 37.96875 -38.453125 C 36.925781 -39.484375 35.46875 -40 33.59375 -40 C 31.71875 -40 29.101562 -38.601562 25.75 -35.8125 C 20.40625 -31.34375 15.972656 -25.832031 12.453125 -19.28125 C 10.140625 -14.96875 8.984375 -11.414062 8.984375 -8.625 C 8.984375 -7.34375 9.242188 -6.179688 9.765625 -5.140625 C 10.285156 -4.109375 11.101562 -3.59375 12.21875 -3.59375 C 14.9375 -3.59375 18.289062 -6.382812 22.28125 -11.96875 C 26.269531 -17.5625 31.5 -26.390625 37.96875 -38.453125 Z M 37.96875 -38.453125 "/></g></g></g><g fill="#DFA878" fill-opacity="1"><g transform="translate(333.799599, 224.279626)"><g><path d="M 32.09375 -79.0625 C 32.09375 -75.539062 30.875 -72.601562 28.4375 -70.25 C 26.007812 -67.894531 23.195312 -66.195312 20 -65.15625 C 19.6875 -65 19.410156 -64.921875 19.171875 -64.921875 C 18.929688 -64.921875 18.8125 -65.117188 18.8125 -65.515625 C 18.8125 -65.921875 19.128906 -66.242188 19.765625 -66.484375 C 22.160156 -67.273438 24.195312 -68.566406 25.875 -70.359375 C 27.550781 -72.160156 28.550781 -74.34375 28.875 -76.90625 C 27.832031 -76.101562 26.671875 -75.703125 25.390625 -75.703125 C 24.117188 -75.703125 23.082031 -76.179688 22.28125 -77.140625 C 21.476562 -78.097656 21.195312 -79.253906 21.4375 -80.609375 C 21.601562 -81.972656 22.265625 -83.132812 23.421875 -84.09375 C 24.578125 -85.050781 25.894531 -85.53125 27.375 -85.53125 C 28.851562 -85.53125 30.007812 -84.890625 30.84375 -83.609375 C 31.675781 -82.328125 32.09375 -80.8125 32.09375 -79.0625 Z M 32.09375 -79.0625 "/></g></g></g><g fill="#DFA878" fill-opacity="1"><g transform="translate(352.72624, 224.279626)"><g><path d="M 134.15625 -88.046875 L 129.125 -86.96875 C 123.695312 -76.90625 118.785156 -64.046875 114.390625 -48.390625 C 112.878906 -42.960938 110.566406 -36.914062 107.453125 -30.25 C 104.335938 -23.582031 100.625 -17.453125 96.3125 -11.859375 C 80.414062 8.503906 60.09375 18.6875 35.34375 18.6875 C 23.84375 18.6875 14.695312 16.210938 7.90625 11.265625 C 3.28125 7.828125 0.207031 3.351562 -1.3125 -2.15625 C -1.875 -4.15625 -2.15625 -6.710938 -2.15625 -9.828125 C -2.15625 -12.941406 -1.335938 -16.632812 0.296875 -20.90625 C 1.941406 -25.175781 4.597656 -28.96875 8.265625 -32.28125 C 11.941406 -35.59375 14.859375 -37.328125 17.015625 -37.484375 C 17.816406 -37.484375 18.296875 -37.363281 18.453125 -37.125 C 18.691406 -36.8125 18.253906 -36.375 17.140625 -35.8125 C 14.660156 -34.769531 11.90625 -32.414062 8.875 -28.75 C 4.15625 -23.15625 1.796875 -16.847656 1.796875 -9.828125 C 1.796875 -4.472656 3.515625 0.117188 6.953125 3.953125 C 11.265625 8.742188 17.375 12.019531 25.28125 13.78125 C 28.789062 14.570312 31.460938 14.96875 33.296875 14.96875 C 35.140625 14.96875 37.035156 14.945312 38.984375 14.90625 C 40.941406 14.875 43.519531 14.457031 46.71875 13.65625 C 53.34375 11.976562 59.691406 9.257812 65.765625 5.5 C 71.835938 1.75 77.03125 -2.296875 81.34375 -6.640625 C 85.65625 -10.992188 89.644531 -15.804688 93.3125 -21.078125 C 99.539062 -30.097656 104.253906 -38.960938 107.453125 -47.671875 C 113.035156 -62.441406 119.023438 -75.335938 125.421875 -86.359375 C 112.722656 -83.722656 102.617188 -80.8125 95.109375 -77.625 C 87.441406 -74.269531 81.492188 -70.515625 77.265625 -66.359375 C 71.992188 -61.003906 68.597656 -54.972656 67.078125 -48.265625 C 66.597656 -46.347656 66.359375 -44.59375 66.359375 -43 C 66.359375 -39.644531 67.273438 -36.925781 69.109375 -34.84375 C 70.953125 -32.769531 72.929688 -31.734375 75.046875 -31.734375 C 77.160156 -31.734375 79.4375 -32.210938 81.875 -33.171875 C 84.3125 -34.128906 86.445312 -35.726562 88.28125 -37.96875 C 90.832031 -41.238281 92.109375 -45.113281 92.109375 -49.59375 C 92.109375 -51.820312 91.789062 -53.21875 91.15625 -53.78125 C 91 -54.019531 91.078125 -54.378906 91.390625 -54.859375 C 92.191406 -56.054688 92.953125 -56.054688 93.671875 -54.859375 C 94.710938 -52.859375 95.234375 -50.679688 95.234375 -48.328125 C 95.234375 -45.972656 94.472656 -43.398438 92.953125 -40.609375 C 90.242188 -35.492188 86.332031 -31.976562 81.21875 -30.0625 C 78.664062 -29.101562 75.929688 -28.625 73.015625 -28.625 C 70.097656 -28.625 66.960938 -29.941406 63.609375 -32.578125 C 60.253906 -35.210938 58.578125 -38.882812 58.578125 -43.59375 C 58.578125 -45.03125 58.738281 -46.585938 59.0625 -48.265625 C 63.613281 -68.796875 86.367188 -82.535156 127.328125 -89.484375 C 128.046875 -90.992188 129.34375 -92.863281 131.21875 -95.09375 C 133.101562 -97.332031 134.703125 -98.671875 136.015625 -99.109375 C 137.335938 -99.554688 138.4375 -99.78125 139.3125 -99.78125 C 141.945312 -99.78125 143.304688 -98.660156 143.390625 -96.421875 C 143.390625 -94.023438 142.429688 -92.1875 140.515625 -90.90625 C 138.753906 -89.789062 136.632812 -88.835938 134.15625 -88.046875 Z M 131.171875 -89.953125 C 136.597656 -91.066406 139.191406 -92.582031 138.953125 -94.5 C 138.796875 -95.457031 138.253906 -95.9375 137.328125 -95.9375 C 136.410156 -95.9375 134.359375 -93.941406 131.171875 -89.953125 Z M 131.171875 -89.953125 "/></g></g></g><g fill="#DFA878" fill-opacity="1"><g transform="translate(461.973636, 224.279626)"><g><path d="M 43 -39.28125 C 33.175781 -22.039062 28.265625 -10.785156 28.265625 -5.515625 C 28.265625 -3.429688 29.023438 -2.390625 30.546875 -2.390625 C 34.617188 -2.390625 40.085938 -9.300781 46.953125 -23.125 C 47.429688 -24.238281 47.910156 -24.675781 48.390625 -24.4375 C 48.867188 -24.195312 49.109375 -23.875 49.109375 -23.46875 C 49.109375 -23.070312 48.945312 -22.597656 48.625 -22.046875 C 44.394531 -13.492188 40.820312 -7.597656 37.90625 -4.359375 C 34.988281 -1.128906 32.070312 0.484375 29.15625 0.484375 C 26.25 0.484375 24.035156 -0.632812 22.515625 -2.875 C 21.722656 -3.914062 21.328125 -5.332031 21.328125 -7.125 C 21.328125 -8.925781 21.722656 -11.101562 22.515625 -13.65625 C 23.316406 -16.207031 25.515625 -20.359375 29.109375 -26.109375 C 29.984375 -27.546875 30.421875 -28.679688 30.421875 -29.515625 C 30.421875 -30.359375 29.742188 -30.78125 28.390625 -30.78125 C 27.035156 -30.78125 24.441406 -28.984375 20.609375 -25.390625 C 14.859375 -20.117188 9.304688 -12.210938 3.953125 -1.671875 C 3.472656 -0.878906 2.929688 -0.378906 2.328125 -0.171875 C 1.734375 0.0234375 0.5625 0.160156 -1.1875 0.234375 C -2.945312 0.316406 -4.109375 0.519531 -4.671875 0.84375 C -3.390625 -1.71875 -0.875 -6.953125 2.875 -14.859375 C 9.582031 -28.828125 13.972656 -36.8125 16.046875 -38.8125 C 17.003906 -39.769531 18.320312 -40.25 20 -40.25 C 20.320312 -40.25 21.140625 -40.128906 22.453125 -39.890625 C 23.773438 -39.648438 24.753906 -39.609375 25.390625 -39.765625 C 22.441406 -38.171875 17.613281 -30.664062 10.90625 -17.25 C 14.65625 -21.882812 18.066406 -25.578125 21.140625 -28.328125 C 24.210938 -31.078125 27.90625 -33.628906 32.21875 -35.984375 C 36.53125 -38.347656 39.6875 -39.53125 41.6875 -39.53125 C 42.164062 -39.53125 42.601562 -39.445312 43 -39.28125 Z M 43 -39.28125 "/></g></g></g><g fill="#DFA878" fill-opacity="1"><g transform="translate(502.102887, 224.279626)"><g><path d="M 28.875 -27.546875 C 31.664062 -30.898438 33.0625 -33.734375 33.0625 -36.046875 C 33.0625 -38.367188 32.101562 -39.53125 30.1875 -39.53125 C 26.4375 -39.53125 22.164062 -36.097656 17.375 -29.234375 C 15.851562 -27.078125 14.375 -24.238281 12.9375 -20.71875 C 11.5 -17.207031 10.78125 -14.035156 10.78125 -11.203125 C 10.78125 -8.367188 11.359375 -6.070312 12.515625 -4.3125 C 13.671875 -2.550781 15.46875 -1.671875 17.90625 -1.671875 C 20.34375 -1.671875 22.597656 -2.25 24.671875 -3.40625 C 26.753906 -4.570312 28.734375 -6.410156 30.609375 -8.921875 C 32.484375 -11.441406 33.898438 -13.539062 34.859375 -15.21875 C 35.816406 -16.894531 37.132812 -19.410156 38.8125 -22.765625 C 39.363281 -23.878906 39.835938 -24.335938 40.234375 -24.140625 C 40.640625 -23.941406 40.84375 -23.660156 40.84375 -23.296875 C 40.84375 -22.941406 40.300781 -21.625 39.21875 -19.34375 C 38.144531 -17.070312 37.066406 -14.9375 35.984375 -12.9375 C 34.910156 -10.9375 33.375 -8.703125 31.375 -6.234375 C 27.789062 -1.753906 22.882812 0.484375 16.65625 0.484375 C 12.175781 0.484375 8.957031 -0.613281 7 -2.8125 C 5.050781 -5.007812 4.078125 -7.546875 4.078125 -10.421875 C 4.078125 -13.929688 4.929688 -17.765625 6.640625 -21.921875 C 8.359375 -26.078125 10.335938 -29.671875 12.578125 -32.703125 C 17.210938 -39.003906 22.5625 -42.15625 28.625 -42.15625 C 31.582031 -42.15625 33.71875 -41.457031 35.03125 -40.0625 C 36.351562 -38.664062 37.015625 -37.050781 37.015625 -35.21875 C 37.015625 -32.5 35.894531 -30.179688 33.65625 -28.265625 C 32.539062 -27.234375 31.601562 -26.71875 30.84375 -26.71875 C 30.082031 -26.71875 29.425781 -26.992188 28.875 -27.546875 Z M 28.875 -27.546875 "/></g></g></g><g fill="#DFA878" fill-opacity="1"><g transform="translate(533.247983, 224.279626)"><g><path d="M 43.234375 -32.453125 C 41.796875 -31.015625 39.757812 -27.757812 37.125 -22.6875 C 34.488281 -17.625 32.910156 -13.832031 32.390625 -11.3125 C 31.878906 -8.800781 31.625 -6.765625 31.625 -5.203125 C 31.625 -3.648438 32.222656 -2.875 33.421875 -2.875 C 34.929688 -2.875 36.804688 -4.269531 39.046875 -7.0625 C 42.316406 -11.132812 45.550781 -16.445312 48.75 -23 C 49.070312 -23.71875 49.429688 -24.117188 49.828125 -24.203125 C 50.460938 -24.441406 50.78125 -24.203125 50.78125 -23.484375 C 50.78125 -23.078125 50.660156 -22.597656 50.421875 -22.046875 C 43.078125 -7.191406 36.890625 0.234375 31.859375 0.234375 C 29.546875 0.234375 27.671875 -0.878906 26.234375 -3.109375 C 25.515625 -4.304688 25.15625 -5.90625 25.15625 -7.90625 C 25.15625 -9.90625 25.554688 -12.34375 26.359375 -15.21875 C 19.960938 -4.914062 14.453125 0.234375 9.828125 0.234375 C 8.546875 0.234375 7.382812 -0.160156 6.34375 -0.953125 C 3.945312 -2.628906 2.75 -5.503906 2.75 -9.578125 C 2.75 -17.410156 6.144531 -25.359375 12.9375 -33.421875 C 16.769531 -37.890625 21.484375 -40.800781 27.078125 -42.15625 C 28.585938 -42.5625 30.019531 -42.765625 31.375 -42.765625 C 35.050781 -42.765625 38.164062 -41.484375 40.71875 -38.921875 C 41.519531 -38.046875 41.757812 -37.207031 41.4375 -36.40625 C 41.125 -35.613281 40.445312 -35.296875 39.40625 -35.453125 C 38.53125 -38.328125 36.613281 -39.765625 33.65625 -39.765625 C 30.226562 -39.765625 26 -37.050781 20.96875 -31.625 C 18.09375 -28.425781 15.414062 -24.671875 12.9375 -20.359375 C 9.820312 -15.171875 8.265625 -11.019531 8.265625 -7.90625 C 8.265625 -4.789062 9.265625 -3.234375 11.265625 -3.234375 C 16.054688 -3.234375 22.320312 -10.582031 30.0625 -25.28125 C 31.582031 -28.226562 32.859375 -30.238281 33.890625 -31.3125 C 34.929688 -32.394531 36.25 -32.9375 37.84375 -32.9375 C 38.164062 -32.9375 38.984375 -32.816406 40.296875 -32.578125 C 41.617188 -32.335938 42.597656 -32.296875 43.234375 -32.453125 Z M 43.234375 -32.453125 "/></g></g><g transform="translate(575.174037, 224.279626)"><g><path d="M 43 -39.28125 C 33.175781 -22.039062 28.265625 -10.785156 28.265625 -5.515625 C 28.265625 -3.429688 29.023438 -2.390625 30.546875 -2.390625 C 34.617188 -2.390625 40.085938 -9.300781 46.953125 -23.125 C 47.429688 -24.238281 47.910156 -24.675781 48.390625 -24.4375 C 48.867188 -24.195312 49.109375 -23.875 49.109375 -23.46875 C 49.109375 -23.070312 48.945312 -22.597656 48.625 -22.046875 C 44.394531 -13.492188 40.820312 -7.597656 37.90625 -4.359375 C 34.988281 -1.128906 32.070312 0.484375 29.15625 0.484375 C 26.25 0.484375 24.035156 -0.632812 22.515625 -2.875 C 21.722656 -3.914062 21.328125 -5.332031 21.328125 -7.125 C 21.328125 -8.925781 21.722656 -11.101562 22.515625 -13.65625 C 23.316406 -16.207031 25.515625 -20.359375 29.109375 -26.109375 C 29.984375 -27.546875 30.421875 -28.679688 30.421875 -29.515625 C 30.421875 -30.359375 29.742188 -30.78125 28.390625 -30.78125 C 27.035156 -30.78125 24.441406 -28.984375 20.609375 -25.390625 C 14.859375 -20.117188 9.304688 -12.210938 3.953125 -1.671875 C 3.472656 -0.878906 2.929688 -0.378906 2.328125 -0.171875 C 1.734375 0.0234375 0.5625 0.160156 -1.1875 0.234375 C -2.945312 0.316406 -4.109375 0.519531 -4.671875 0.84375 C -3.390625 -1.71875 -0.875 -6.953125 2.875 -14.859375 C 9.582031 -28.828125 13.972656 -36.8125 16.046875 -38.8125 C 17.003906 -39.769531 18.320312 -40.25 20 -40.25 C 20.320312 -40.25 21.140625 -40.128906 22.453125 -39.890625 C 23.773438 -39.648438 24.753906 -39.609375 25.390625 -39.765625 C 22.441406 -38.171875 17.613281 -30.664062 10.90625 -17.25 C 14.65625 -21.882812 18.066406 -25.578125 21.140625 -28.328125 C 24.210938 -31.078125 27.90625 -33.628906 32.21875 -35.984375 C 36.53125 -38.347656 39.6875 -39.53125 41.6875 -39.53125 C 42.164062 -39.53125 42.601562 -39.445312 43 -39.28125 Z M 43 -39.28125 "/></g></g></g><g fill="#DFA878" fill-opacity="1"><g transform="translate(615.303288, 224.279626)"><g><path d="M 3.828125 -9.578125 C 3.828125 -16.210938 7.023438 -27.3125 13.421875 -42.875 L 7.1875 -42.875 C 6.789062 -42.875 6.53125 -43.09375 6.40625 -43.53125 C 6.289062 -43.976562 6.332031 -44.421875 6.53125 -44.859375 C 6.726562 -45.296875 7.023438 -45.515625 7.421875 -45.515625 L 14.609375 -45.515625 C 17.484375 -51.828125 20.160156 -57.097656 22.640625 -61.328125 C 25.117188 -65.554688 27.394531 -68.410156 29.46875 -69.890625 C 31.539062 -71.367188 33.035156 -72.109375 33.953125 -72.109375 C 34.867188 -72.109375 35.53125 -72.03125 35.9375 -71.875 C 37.769531 -70.988281 38.6875 -69.164062 38.6875 -66.40625 C 38.6875 -63.65625 37.765625 -60.320312 35.921875 -56.40625 C 34.085938 -52.5 32.296875 -48.867188 30.546875 -45.515625 L 36.296875 -45.515625 C 36.691406 -45.515625 36.945312 -45.296875 37.0625 -44.859375 C 37.1875 -44.421875 37.148438 -43.976562 36.953125 -43.53125 C 36.753906 -43.09375 36.453125 -42.875 36.046875 -42.875 L 29.109375 -42.875 C 24.710938 -35.445312 19.398438 -28.863281 13.171875 -23.125 L 10.421875 -10.90625 C 10.179688 -9.863281 10.0625 -8.84375 10.0625 -7.84375 C 10.0625 -6.84375 10.335938 -5.820312 10.890625 -4.78125 C 11.453125 -3.75 12.332031 -3.234375 13.53125 -3.234375 C 14.894531 -3.234375 16.414062 -3.710938 18.09375 -4.671875 C 21.925781 -7.546875 26.15625 -13.578125 30.78125 -22.765625 C 31.101562 -23.484375 31.484375 -23.921875 31.921875 -24.078125 C 32.359375 -24.234375 32.613281 -24.128906 32.6875 -23.765625 C 32.769531 -23.410156 32.65625 -22.835938 32.34375 -22.046875 C 29.707031 -16.535156 27.628906 -12.617188 26.109375 -10.296875 C 21.796875 -3.347656 17.207031 0.125 12.34375 0.125 C 9.863281 0.125 7.820312 -0.789062 6.21875 -2.625 C 4.625 -4.46875 3.828125 -6.785156 3.828125 -9.578125 Z M 27.90625 -45.515625 C 33.175781 -54.941406 35.8125 -61.488281 35.8125 -65.15625 C 35.8125 -66.757812 35.53125 -67.5625 34.96875 -67.5625 C 34.09375 -67.5625 32.753906 -66.28125 30.953125 -63.71875 C 29.160156 -61.164062 26.148438 -55.097656 21.921875 -45.515625 Z M 26.359375 -42.875 L 20.71875 -42.875 C 19.757812 -40.644531 17.601562 -35.335938 14.25 -26.953125 C 18.5625 -31.421875 22.597656 -36.726562 26.359375 -42.875 Z M 26.359375 -42.875 "/></g></g><g transform="translate(639.261034, 224.279626)"><g><path d="M 28.625 -41.921875 C 34.457031 -41.921875 37.375 -38.25 37.375 -30.90625 C 37.375 -27.550781 36.492188 -23.957031 34.734375 -20.125 C 32.492188 -14.9375 29.140625 -10.222656 24.671875 -5.984375 C 25.710938 -3.992188 27.585938 -3 30.296875 -3 C 32.453125 -3 34.488281 -4.078125 36.40625 -6.234375 C 38.800781 -8.703125 40.519531 -10.875 41.5625 -12.75 C 42.601562 -14.632812 43.363281 -16.015625 43.84375 -16.890625 C 44.320312 -17.765625 44.9375 -19.019531 45.6875 -20.65625 C 46.445312 -22.300781 46.90625 -23.300781 47.0625 -23.65625 C 47.226562 -24.019531 47.507812 -24.203125 47.90625 -24.203125 C 48.707031 -24.273438 49.109375 -23.992188 49.109375 -23.359375 C 49.109375 -23.117188 49.03125 -22.835938 48.875 -22.515625 L 48.15625 -20.84375 C 47.675781 -19.726562 47.316406 -18.929688 47.078125 -18.453125 C 46.835938 -17.972656 46.414062 -17.113281 45.8125 -15.875 C 45.21875 -14.632812 44.695312 -13.65625 44.25 -12.9375 C 43.8125 -12.21875 43.210938 -11.257812 42.453125 -10.0625 C 41.703125 -8.863281 41.023438 -7.90625 40.421875 -7.1875 C 39.828125 -6.46875 39.085938 -5.664062 38.203125 -4.78125 C 37.328125 -3.90625 36.488281 -3.226562 35.6875 -2.75 C 33.695312 -1.550781 31.820312 -0.953125 30.0625 -0.953125 C 26.789062 -0.953125 24.238281 -1.992188 22.40625 -4.078125 C 18.726562 -1.359375 15.332031 0 12.21875 0 C 6.382812 0 3.46875 -3.671875 3.46875 -11.015625 C 3.46875 -14.367188 4.347656 -17.960938 6.109375 -21.796875 C 8.503906 -27.390625 11.878906 -32.140625 16.234375 -36.046875 C 20.585938 -39.960938 24.71875 -41.921875 28.625 -41.921875 Z M 29.953125 -38.203125 C 27.796875 -38.203125 25.238281 -36.765625 22.28125 -33.890625 C 19.320312 -31.023438 16.6875 -27.113281 14.375 -22.15625 C 11.582031 -16.40625 10.1875 -11.691406 10.1875 -8.015625 C 10.1875 -4.347656 11.582031 -2.515625 14.375 -2.515625 C 16.375 -2.515625 18.609375 -3.59375 21.078125 -5.75 C 19.804688 -7.582031 19.171875 -9.539062 19.171875 -11.625 C 19.328125 -15.050781 20.722656 -16.765625 23.359375 -16.765625 C 24.398438 -16.765625 25.257812 -16.40625 25.9375 -15.6875 C 26.613281 -14.96875 26.953125 -14.304688 26.953125 -13.703125 C 26.953125 -13.109375 26.875 -12.492188 26.71875 -11.859375 C 28.070312 -13.859375 29.625 -16.691406 31.375 -20.359375 C 33.375 -24.429688 34.375 -28.421875 34.375 -32.328125 C 34.375 -36.242188 32.898438 -38.203125 29.953125 -38.203125 Z M 29.953125 -38.203125 "/></g></g></g><g clip-path="url(#ef506e134e)"><path fill="#DFA878" d="M 654.183594 135.492188 C 663.300781 123.6875 672.710938 112.003906 681.371094 99.867188 C 686.207031 93.046875 691.09375 86.171875 694.9375 78.742188 C 695.929688 76.710938 696.957031 74.644531 697.253906 72.40625 C 697.390625 66.625 693.722656 57.945312 689.632812 53.933594 C 688.988281 53.328125 688.292969 52.789062 687.5625 52.441406 C 686.015625 51.800781 684.101562 51.78125 682.398438 51.886719 C 674.570312 52.492188 666.550781 56.105469 661.871094 62.5625 C 661.230469 63.449219 660.621094 64.453125 660.152344 65.445312 C 659.769531 66.226562 659.4375 67.128906 659.140625 67.960938 C 659.019531 68.289062 658.8125 68.933594 658.707031 69.261719 C 657.992188 71.433594 657.386719 73.742188 656.792969 75.945312 C 650.808594 98.984375 646.949219 122.664062 638.738281 145.089844 C 637.519531 148.164062 636.214844 151.273438 634.371094 154.050781 C 633.226562 155.699219 631.851562 157.488281 629.78125 158.023438 C 628.773438 158.214844 627.851562 158.199219 626.839844 158.269531 C 619.328125 158.5625 611.867188 158.113281 604.386719 158.285156 C 600.714844 158.371094 596.957031 158.527344 593.394531 159.363281 C 591.722656 159.796875 589.984375 160.332031 588.820312 161.636719 C 586.90625 164.101562 589.21875 166.0625 591.480469 167.136719 C 593.949219 168.320312 596.679688 169.011719 599.339844 169.570312 C 602.976562 170.28125 606.734375 170.074219 610.4375 170.210938 C 612.300781 170.296875 614.160156 170.417969 616.023438 170.386719 C 618.824219 170.386719 621.675781 170.195312 624.476562 170.488281 C 625.660156 170.628906 626.929688 170.855469 627.972656 171.511719 C 628.425781 171.808594 628.980469 172.207031 628.945312 172.816406 C 628.910156 173.195312 628.617188 173.492188 628.300781 173.683594 C 627.398438 174.1875 626.476562 174.34375 625.519531 174.550781 C 623.660156 174.898438 621.796875 175.105469 619.9375 175.316406 C 618.09375 175.488281 613.378906 175.976562 611.570312 176.199219 C 610.648438 176.320312 609.726562 176.460938 608.820312 176.667969 C 608.367188 176.773438 607.917969 176.894531 607.535156 177.085938 C 607.34375 177.191406 607.152344 177.292969 607.097656 177.449219 C 606.75 178.421875 608.941406 178.925781 609.550781 179.101562 C 611.359375 179.535156 613.238281 179.707031 615.082031 179.792969 C 616.945312 179.863281 618.824219 179.847656 620.683594 179.570312 C 618.839844 179.878906 616.960938 179.949219 615.082031 179.914062 C 612.753906 179.847656 610.351562 179.722656 608.125 178.945312 C 607.414062 178.699219 606.300781 177.988281 606.90625 177.121094 C 607.378906 176.617188 608.125 176.476562 608.75 176.304688 C 611.882812 175.539062 616.632812 175.160156 619.882812 174.726562 C 621.726562 174.5 623.589844 174.257812 625.398438 173.875 C 626.25 173.683594 627.207031 173.476562 627.9375 173.058594 C 628.09375 172.953125 628.234375 172.816406 628.234375 172.761719 C 628.25 172.746094 628.234375 172.710938 628.214844 172.660156 C 628.042969 172.382812 627.730469 172.207031 627.449219 172.035156 C 625.695312 171.148438 623.589844 171.183594 621.640625 171.148438 C 619.78125 171.148438 617.917969 171.234375 616.039062 171.269531 C 614.160156 171.324219 612.28125 171.234375 610.402344 171.167969 C 606.648438 171.078125 602.855469 171.324219 599.117188 170.644531 C 598.175781 170.472656 597.273438 170.261719 596.332031 170.039062 C 593.167969 169.203125 587.324219 167.625 586.816406 163.839844 C 586.433594 158.40625 594.714844 157.519531 598.679688 157.105469 C 608.472656 156.238281 618.351562 157.175781 628.128906 156.550781 C 628.527344 156.515625 629.03125 156.496094 629.382812 156.410156 C 630.128906 156.21875 630.789062 155.699219 631.347656 155.144531 C 632.582031 153.894531 633.519531 152.3125 634.355469 150.734375 C 635.417969 148.738281 636.320312 146.550781 637.15625 144.433594 C 645.59375 121.167969 649.382812 96.570312 655.871094 72.753906 C 656.566406 70.289062 657.332031 67.699219 658.324219 65.339844 C 659.996094 61.574219 662.847656 58.378906 666.1875 56 C 671.492188 52.269531 678.675781 49.941406 685.179688 50.375 C 686.191406 50.480469 687.199219 50.636719 688.136719 51.070312 C 689.980469 51.972656 691.304688 53.484375 692.484375 55.0625 C 695.652344 59.523438 698.050781 65.496094 698.453125 70.964844 C 698.644531 72.910156 697.949219 74.886719 697.183594 76.640625 C 694.867188 81.796875 691.6875 86.5 688.554688 91.171875 C 677.996094 106.621094 665.960938 121.011719 654.183594 135.492188 Z M 654.183594 135.492188 " fill-opacity="1" fill-rule="nonzero"/></g><g clip-path="url(#802cfbd37e)"><path fill="#DFA878" d="M 683.234375 48.898438 C 679.945312 43.640625 672.394531 30.308594 675.160156 24.371094 C 675.875 22.722656 677.195312 21.003906 679.128906 20.742188 C 681.179688 20.480469 682.972656 21.644531 684.347656 23.015625 C 683.753906 23.398438 683.007812 23.882812 682.535156 24.421875 C 681.648438 25.378906 681.613281 26.226562 682.761719 26.921875 C 683.597656 27.355469 684.570312 26.800781 685.390625 26.347656 C 686.257812 25.847656 687.128906 25.222656 688.066406 24.648438 C 689.128906 24.023438 690.277344 23.449219 691.5625 23.363281 C 694.503906 23.222656 695.632812 25.132812 696.78125 27.40625 C 697.21875 28.1875 697.652344 28.902344 698.488281 29.160156 C 700.433594 29.59375 702.019531 28.292969 703.722656 27.355469 C 705.515625 26.28125 707.425781 25.933594 709.097656 27.511719 C 710.347656 28.675781 711.167969 30.1875 712.003906 31.609375 C 712.542969 32.53125 713.046875 33.449219 713.585938 34.300781 C 714.296875 35.308594 715.046875 36.660156 716.453125 36.433594 C 718.351562 36.140625 719.863281 34.4375 721.863281 34.316406 C 722.4375 34.300781 723.046875 34.527344 723.550781 34.769531 C 726.160156 36.089844 729.359375 39.300781 728.335938 42.476562 C 728.28125 42.632812 728.195312 42.839844 728.054688 43.066406 C 727.867188 43.328125 727.605469 43.554688 727.34375 43.726562 C 725.34375 45.011719 723.117188 45.636719 720.90625 46.347656 C 713.777344 48.5 706.488281 50.0625 699.199219 51.519531 C 697.113281 51.9375 695.027344 52.320312 692.9375 52.683594 C 701.164062 50.652344 709.410156 48.621094 717.515625 46.15625 C 719.535156 45.53125 721.550781 44.890625 723.480469 44.109375 C 724.558594 43.675781 725.621094 43.242188 726.527344 42.597656 C 726.664062 42.476562 726.804688 42.371094 726.910156 42.234375 C 727.484375 40.878906 726.683594 39.472656 725.761719 38.363281 C 725.117188 37.632812 724.351562 36.992188 723.515625 36.488281 C 723.046875 36.210938 722.542969 35.949219 722.019531 35.878906 C 721.253906 35.878906 720.613281 36.347656 719.898438 36.730469 C 718.890625 37.285156 717.914062 37.875 716.714844 38.066406 C 714.578125 38.433594 713.21875 36.816406 712.175781 35.203125 C 711.027344 33.433594 710.105469 31.503906 708.871094 29.839844 C 707.496094 28 706.609375 27.667969 704.558594 28.847656 C 703.671875 29.335938 702.765625 29.960938 701.671875 30.410156 C 699.949219 31.175781 697.632812 31.246094 696.296875 29.683594 C 694.9375 28.277344 694.660156 25.757812 692.730469 25.117188 C 689.617188 24.195312 686.675781 28.398438 683.582031 28.570312 C 682.519531 28.640625 681.546875 28.050781 680.902344 27.21875 C 679.71875 25.636719 680.816406 23.867188 682.136719 22.84375 C 682.378906 22.652344 682.589844 22.496094 682.851562 22.320312 C 682.851562 22.320312 682.726562 23.398438 682.726562 23.398438 C 682.257812 22.964844 681.683594 22.582031 681.09375 22.304688 C 678.726562 21.226562 677.160156 22.753906 676.1875 24.820312 C 673.542969 30.152344 680.5 43.796875 683.234375 48.898438 Z M 683.234375 48.898438 " fill-opacity="1" fill-rule="nonzero"/></g><path fill="#DFA878" d="M 686.015625 48.414062 L 691.164062 24.628906 L 692.851562 25.066406 Z M 686.015625 48.414062 " fill-opacity="1" fill-rule="nonzero"/><path fill="#DFA878" d="M 690.484375 49.457031 L 706.957031 27.5625 L 708.316406 28.65625 Z M 690.484375 49.457031 " fill-opacity="1" fill-rule="nonzero"/><path fill="#DFA878" d="M 692.800781 50.410156 L 724.457031 36.226562 L 725.117188 37.839844 Z M 692.800781 50.410156 " fill-opacity="1" fill-rule="nonzero"/><path fill="#DFA878" d="M 683.300781 27.511719 L 683.632812 40.011719 L 681.5625 27.667969 Z M 683.300781 27.511719 " fill-opacity="1" fill-rule="nonzero"/><path fill="#DFA878" d="M 698.625 30.238281 L 690.484375 44.351562 L 697.078125 29.457031 Z M 698.625 30.238281 " fill-opacity="1" fill-rule="nonzero"/><path fill="#DFA878" d="M 714.28125 37.390625 L 699.0625 44.992188 L 713.429688 35.878906 Z M 714.28125 37.390625 " fill-opacity="1" fill-rule="nonzero"/><path fill="#DFA878" d="M 683.007812 51.660156 C 679.300781 54.332031 676.066406 57.683594 673.179688 61.207031 C 672.96875 61.449219 672.550781 61.972656 672.359375 62.214844 C 672.011719 62.667969 671.144531 63.828125 670.796875 64.28125 C 670.238281 65.097656 669.628906 65.949219 669.074219 66.761719 C 666.726562 70.355469 664.605469 74.175781 662.933594 78.152344 C 655.054688 97.769531 649.785156 118.304688 642.757812 138.234375 C 641.589844 141.515625 640.410156 144.777344 638.964844 147.9375 C 638.511719 148.929688 637.921875 150.074219 637.328125 150.992188 C 637.921875 150.039062 638.476562 148.945312 638.929688 147.921875 C 640.339844 144.746094 641.488281 141.464844 642.617188 138.183594 C 647.054688 125.007812 650.84375 111.621094 655.035156 98.375 C 657.523438 90.652344 659.925781 82.855469 663.195312 75.425781 C 665.628906 70.148438 668.707031 65.097656 672.34375 60.546875 C 674.519531 57.804688 676.953125 55.21875 679.5625 52.894531 C 680.46875 52.113281 681.355469 51.363281 682.328125 50.671875 C 682.3125 50.652344 683.007812 51.660156 683.007812 51.660156 Z M 683.007812 51.660156 " fill-opacity="1" fill-rule="nonzero"/><path fill="#DFA878" d="M 689.527344 53.03125 C 687.40625 56.46875 673.699219 78.742188 671.945312 81.589844 C 671.316406 82.578125 670.761719 83.621094 670.203125 84.625 C 659.855469 104.886719 650.410156 126.222656 640.496094 146.722656 C 639.488281 148.789062 638.425781 151.011719 637.3125 153.023438 C 638.410156 150.992188 639.453125 148.753906 640.425781 146.6875 C 649.855469 126.601562 658.898438 105.71875 668.65625 85.824219 C 669.265625 84.59375 670.066406 83.082031 670.742188 81.902344 C 671.597656 80.476562 673.074219 78.03125 673.925781 76.605469 C 673.925781 76.605469 688.484375 52.390625 688.484375 52.390625 C 688.484375 52.390625 689.527344 53.03125 689.527344 53.03125 Z M 689.527344 53.03125 " fill-opacity="1" fill-rule="nonzero"/><path fill="#DFA878" d="M 696.105469 62.5625 L 681.683594 88.273438 C 681.683594 88.289062 640.914062 149.292969 640.894531 149.328125 C 640.894531 149.328125 680.988281 87.734375 680.917969 87.855469 C 680.917969 87.855469 695.027344 61.988281 695.027344 61.988281 C 695.027344 61.988281 696.105469 62.5625 696.105469 62.5625 Z M 696.105469 62.5625 " fill-opacity="1" fill-rule="nonzero"/><path fill="#DFA878" d="M 684.816406 51.417969 C 680.46875 55.792969 676.328125 60.445312 672.640625 65.410156 C 670.832031 67.855469 669.054688 70.476562 667.683594 73.203125 C 667.265625 73.949219 666.726562 75.199219 666.359375 75.980469 C 657.59375 96.96875 650.0625 118.445312 642.148438 139.746094 C 649.730469 118.425781 657.210938 96.640625 665.734375 75.703125 C 665.941406 75.234375 666.480469 74.019531 666.691406 73.566406 C 667.039062 72.890625 667.421875 72.144531 667.769531 71.484375 C 668.222656 70.722656 668.882812 69.539062 669.386719 68.8125 C 670.03125 67.789062 670.882812 66.574219 671.578125 65.582031 C 674.171875 62.023438 677.023438 58.621094 679.996094 55.390625 C 681.40625 53.863281 682.832031 52.371094 684.328125 50.914062 Z M 684.816406 51.417969 " fill-opacity="1" fill-rule="nonzero"/></svg>